<svg viewBox="0 0 2160 360" xmlns="http://www.w3.org/2000/svg" xml:space="preserve" style="fill-rule:evenodd;clip-rule:evenodd;stroke-linejoin:round;stroke-miterlimit:2"><path d="m242.604 518.591 1.544 85.424 207.817-2.794-63.684 199.342 82.15 27.22 98.304-314.156-326.131 4.964zM467.781 293.254l-79.937 26.329 40.866 126.143 81.952-27.183-42.881-125.289z" style="fill:#0042ff" transform="matrix(.4182 0 0 .4182 215.744 -34.406)"/><path d="m702.523 368.511-109.585 75.811 49.042 67.681 109.321-75.366-48.778-68.126z" style="fill:#0067ff" transform="matrix(.4182 0 0 .4182 215.744 -34.406)"/><path d="m643.188 602.445-48.837 66.019 107.653 81.762 50.753-68.649-109.569-79.132z" style="fill:#007bff" transform="matrix(.4182 0 0 .4182 215.744 -34.406)"/><g><text x="600.887" y="339.853" style="font-family:'Arial-BoldMT','Arial',sans-serif;font-weight:700;font-size:344.906px;fill:#4b4b4b" transform="matrix(.63785 0 0 .63785 226.229 60.674)">Recoco</text></g><g><text x="1301.07" y="417.044" style="font-family:'ArialMT','Arial',sans-serif;font-size:200px;fill:#4b4b4b;fill-opacity:.51" transform="translate(140.985 -139.462)">LMS</text></g></svg>